<?xml version="1.0" encoding="utf-8"?>
<!-- Generator: Adobe Illustrator 16.0.2, SVG Export Plug-In . SVG Version: 6.00 Build 0)  -->
<!DOCTYPE svg PUBLIC "-//W3C//DTD SVG 1.1//EN" "http://www.w3.org/Graphics/SVG/1.1/DTD/svg11.dtd">
<svg version="1.1" id="Layer_1" xmlns="http://www.w3.org/2000/svg" xmlns:xlink="http://www.w3.org/1999/xlink" x="0px" y="0px"
	 width="1335.134px" height="381.038px" viewBox="0 0 1335.134 381.038" enable-background="new 0 0 1335.134 381.038"
	 xml:space="preserve">
<g>
	<path fill="#FFFFFF" d="M319.028,284.283c0.28,1.174,0.463,2.304,0.542,3.394c0.078,1.086,0.152,2.126,0.224,3.118
		c0.752,10.491-1.097,19.43-5.539,26.815c-4.447,7.379-9.931,13.445-16.456,18.193c-6.525,4.745-13.386,8.32-20.573,10.729
		c-7.192,2.404-13.161,3.779-17.913,4.12c-7.721,0.554-15.046-0.265-21.966-2.455c-6.924-2.19-13.648-5.094-20.175-8.702
		c-6.527-3.613-12.889-7.634-19.073-12.063c-6.19-4.435-12.318-8.72-18.385-12.86c-6.071-4.145-12.098-7.741-18.086-10.792
		c-5.993-3.054-12.1-4.953-18.319-5.701l-5.089,8.126c-0.723,1.046-2.668,3.773-5.831,8.179c-3.168,4.406-7.014,9.058-11.536,13.961
		c-4.526,4.901-9.578,9.391-15.152,13.476c-5.58,4.079-11.142,6.32-16.682,6.718c-4.158,0.298-7.665-0.746-10.522-3.126
		c-2.857-2.384-4.45-5.852-4.776-10.403c-0.213-2.97,0.603-6.811,2.457-11.519c1.85-4.713,4.855-9.303,9.012-13.78
		c4.157-4.478,9.543-8.444,16.161-11.904c6.617-3.461,14.677-5.53,24.18-6.212l0.297-0.021c1.583-0.113,3.067-0.22,4.455-0.319
		c1.383-0.1,2.784-0.004,4.2,0.296c3.756-8.627,7.474-17.849,11.15-27.664c3.671-9.815,7.375-19.931,11.106-30.349
		c3.73-10.416,7.504-20.881,11.329-31.408c3.821-10.521,7.768-20.705,11.838-30.549c-6.847,1.685-14.127,3.505-21.847,5.447
		c-7.724,1.949-17.09,3.814-28.105,5.598c-13.337,2.747-25.271,6.29-35.804,10.627c-10.537,4.337-19.391,9.202-26.564,14.591
		c-7.179,5.394-12.579,11.251-16.202,17.578c-3.626,6.333-5.183,13.058-4.671,20.185c0.781,10.892,4.326,18.696,10.634,23.416
		c6.309,4.726,13.815,6.771,22.529,6.146c3.958-0.283,8.421-1.201,13.384-2.75c4.963-1.551,9.583-3.72,13.86-6.518
		c4.277-2.792,7.766-6.177,10.466-10.152c2.7-3.972,3.865-8.533,3.496-13.684c-0.043-0.594-0.089-1.234-0.139-1.93
		c-0.049-0.691-0.198-1.329-0.436-1.909c-0.128-1.781,0.699-2.736,2.481-2.864c1.383-0.1,2.233,0.638,2.546,2.205
		c0.309,1.573,0.51,2.948,0.595,4.136c0.468,6.534-1.398,12.441-5.596,17.714c-4.201,5.278-9.353,9.729-15.459,13.348
		c-2.855,1.8-5.878,3.36-9.067,4.681c-3.188,1.323-6.349,2.396-9.471,3.215c-3.126,0.822-6.064,1.48-8.813,1.977
		c-2.754,0.495-5.017,0.808-6.798,0.936c-6.733,0.483-12.392-0.055-16.981-1.619c-4.589-1.559-8.378-3.727-11.361-6.498
		c-2.987-2.771-5.202-5.941-6.653-9.522c-1.45-3.575-2.31-7.245-2.58-11.008c-0.312-4.354,0.324-9.323,1.915-14.914
		c1.587-5.583,4.459-11.313,8.618-17.183c4.155-5.868,9.667-11.538,16.542-17.008c6.87-5.465,15.422-10.359,25.663-14.675
		c6.363-2.844,13.395-5.336,21.104-7.484c7.705-2.143,15.718-4.158,24.042-6.052c8.321-1.888,16.793-3.742,25.421-5.555
		c8.625-1.812,17.228-3.921,25.814-6.328c11.235-26.476,22.849-46.958,34.845-61.452c11.992-14.487,25.217-22.255,39.671-23.291
		c3.958-0.284,7.357,0.62,10.193,2.701c2.836,2.087,4.41,5.309,4.722,9.662c0.483,6.732-2.223,14.785-8.117,24.163
		c-7.491,12.081-16.646,21.79-27.462,29.133c-10.816,7.342-22.524,13.359-35.122,18.04l-17.276,42.133
		c-6.419,15.983-12.857,31.621-19.322,46.907c-6.468,15.289-12.684,28.521-18.645,39.693c1.217,0.31,2.537,0.713,3.967,1.208
		c10.353,2.839,20.681,6.771,30.995,11.807c10.309,5.029,20.658,9.907,31.048,14.638c10.385,4.727,20.776,8.757,31.165,12.093
		c10.387,3.332,20.63,4.64,30.727,3.916c6.135-0.44,11.804-1.893,17-4.354c5.196-2.463,9.64-5.668,13.34-9.613
		c3.695-3.95,6.494-8.628,8.396-14.034c1.897-5.411,2.624-11.284,2.17-17.618c-0.071-0.992-0.201-2.074-0.383-3.256
		c-0.188-1.181-0.312-2.268-0.383-3.256c-0.114-1.586,0.618-2.432,2.206-2.546C317.589,282.298,318.53,282.926,319.028,284.283z
		 M113.259,328.592c3.294-4.019,6.538-8.729,9.733-14.131c3.194-5.405,6.244-11.394,9.158-17.97
		c-1.401-0.099-2.749-0.152-4.042-0.158c-1.297-0.009-2.636,0.041-4.019,0.141c-7.721,0.554-14.456,2.379-20.204,5.477
		c-5.748,3.1-10.522,6.623-14.315,10.579c-3.797,3.953-6.594,7.936-8.396,11.946c-1.802,4.009-2.61,7.299-2.426,9.874
		c0.213,2.97,1.172,5.289,2.887,6.956c1.71,1.67,3.951,2.403,6.725,2.205c3.958-0.284,8.081-1.772,12.366-4.468
		C105.01,336.348,109.186,332.861,113.259,328.592z M237.561,97.298c-5.018,4.94-10.375,12.833-16.061,23.688
		c-5.69,10.855-11.517,23.264-17.479,37.223c6.572-2.659,13.624-6.299,21.156-10.92c7.527-4.616,14.466-9.843,20.815-15.671
		c6.345-5.829,11.529-11.97,15.543-18.427c4.015-6.454,5.795-12.85,5.34-19.188c-0.199-2.771-1.146-4.843-2.833-6.214
		c-1.694-1.372-4.517-1.916-8.475-1.632c-2.546,0.584-5.398,1.731-8.558,3.451C243.85,91.325,240.699,93.892,237.561,97.298z"/>
	<path fill="#FFFFFF" d="M270.77,210.733c0.789-0.057,1.563,0.334,2.323,1.176c0.755,0.842,0.765,1.69,0.033,2.535
		c-2.615,5.163-5.774,10.413-9.467,15.753c-3.699,5.339-7.577,10.244-11.631,14.714c-4.059,4.471-8.221,8.154-12.491,11.045
		c-4.27,2.895-8.284,4.474-12.047,4.744c-3.758,0.27-6.81-0.654-9.154-2.776c-2.339-2.117-3.639-4.962-3.895-8.525
		c-0.27-3.759,0.457-8.191,2.181-13.291c1.724-5.096,3.934-10.379,6.625-15.847c2.696-5.465,5.683-10.902,8.979-16.315
		c3.292-5.409,6.326-10.254,9.107-14.533c2.776-4.275,5.066-7.724,6.87-10.343c1.799-2.615,2.601-3.917,2.406-3.903
		c2.97-0.213,5.307,0.515,7.022,2.182c1.71,1.669,2.646,3.594,2.801,5.77c0.185,2.575-0.686,5.72-2.606,9.44
		c-1.925,3.719-4.324,7.726-7.198,12.009c-2.878,4.287-6.089,8.748-9.637,13.376c-3.549,4.635-6.764,9.096-9.637,13.377
		c-2.874,4.288-5.273,8.288-7.198,12.009c-1.921,3.72-2.798,6.768-2.628,9.144c0.1,1.387,0.761,2.287,1.984,2.692
		c1.223,0.412,2.332,0.58,3.32,0.509c3.169-0.227,6.643-1.671,10.435-4.33c3.788-2.659,7.573-6.065,11.356-10.218
		c3.779-4.151,7.429-8.787,10.941-13.917c3.513-5.127,6.481-10.167,8.916-15.117C269.017,211.26,269.777,210.805,270.77,210.733z
		 M276.026,121.703c2.57-0.184,4.761,0.507,6.565,2.065c1.801,1.565,2.791,3.531,2.961,5.907c0.171,2.376-0.525,4.515-2.077,6.418
		c-1.557,1.902-3.623,2.947-6.193,3.131c-2.376,0.17-4.472-0.575-6.279-2.236c-1.813-1.662-2.802-3.68-2.972-6.056
		c-0.17-2.376,0.524-4.462,2.087-6.269C271.679,122.863,273.65,121.874,276.026,121.703z"/>
	<path fill="#FFFFFF" d="M334,210.078c-1.925,3.721-5.556,5.771-10.901,6.154c-3.369,0.242-6.938-0.295-10.713-1.619
		c-3.779-1.318-7.49-3.838-11.139-7.558c0.78,16.463-0.218,33.05-2.998,49.764c-2.785,16.72-6.959,31.99-12.534,45.822
		c-5.575,13.832-12.226,25.153-19.951,33.967c-7.726,8.81-16.043,13.539-24.953,14.178c-3.958,0.284-7.43-0.265-10.416-1.641
		c-2.981-1.383-4.662-4.643-5.031-9.788c-0.455-6.339,1-14.549,4.352-24.641c3.358-10.09,7.24-20.472,11.648-31.131
		c12.705-33.747,23.683-63.087,32.938-88.031c9.256-24.94,17.376-46.268,24.366-63.983c6.985-17.711,13.057-32.279,18.208-43.694
		c5.152-11.413,10.025-20.465,14.619-27.166c4.594-6.697,9.279-11.412,14.06-14.143c4.776-2.731,10.138-4.308,16.077-4.734
		c3.364-0.241,6.271,0.748,8.719,2.96c2.445,2.218,3.828,5.504,4.14,9.861c0.469,6.542-1.578,14.805-6.132,24.79
		c-4.559,9.992-10.719,21.188-18.486,33.595c-7.766,12.414-16.863,25.715-27.286,39.908c-10.427,14.194-21.181,28.659-32.259,43.395
		c-5.09,6.745-9.505,13.139-13.251,19.182c-3.745,6.043-7.223,12.317-10.44,18.821c-3.213,6.508-6.29,13.553-9.23,21.132
		c-2.936,7.58-6.051,16.171-9.346,25.768c-2.201,5.335-4.349,10.769-6.442,16.301c-2.09,5.523-3.995,10.888-5.711,16.095
		c-1.716,5.202-3.106,10.083-4.173,14.645c-1.064,4.556-1.493,8.321-1.28,11.296c0.199,2.774,0.816,4.424,1.847,4.946
		c1.036,0.522,2.342,0.728,3.925,0.614c2.969-0.214,6.043-1.776,9.215-4.69c3.177-2.915,6.307-6.422,9.394-10.524
		c3.092-4.102,6.005-8.541,8.746-13.313c2.745-4.776,5.166-9.129,7.272-13.058c4.707-9.293,8.749-18.09,12.137-26.392
		c3.383-8.302,6.132-16.457,8.244-24.472c2.112-8.009,3.569-16.122,4.374-24.342c0.801-8.216,0.887-16.779,0.248-25.688
		l-0.383-5.346c-0.099-1.383,0.64-2.135,2.227-2.248c0.988-0.071,1.816,0.367,2.482,1.313c2.831,6.168,6.452,10.237,10.875,12.205
		c4.419,1.973,8.31,2.836,11.679,2.595c2.77-0.198,4.65-1.028,5.641-2.494c0.987-1.46,2.079-2.238,3.266-2.323
		c0.789-0.057,1.404,0.197,1.846,0.763c0.437,0.565,0.679,1.146,0.722,1.74C334.255,209.464,334.181,209.869,334,210.078z
		 M369.466,55.303c-0.142-1.978-0.628-3.882-1.455-5.716c-0.831-1.83-2.437-2.759-4.827-2.789
		c-4.585-0.067-8.625,1.864-12.121,5.795c-3.5,3.936-6.541,8.678-9.128,14.237c-8.762,19.335-16.559,37.558-23.392,54.66
		c-6.833,17.108-14.149,33.701-21.951,49.782l-9.794,21.597c4.368-5.687,9.458-12.366,15.278-20.05
		c5.815-7.679,11.846-15.872,18.087-24.579c6.241-8.703,12.365-17.603,18.383-26.69c6.014-9.088,11.36-17.778,16.04-26.075
		c4.676-8.292,8.41-15.924,11.194-22.892C368.564,65.618,369.793,59.859,369.466,55.303z"/>
	<path fill="#FFFFFF" d="M402.022,201.32c1.782-0.128,2.737,0.698,2.865,2.48c0.042,0.594-0.031,1-0.212,1.209
		c-3.66,7.23-7.635,13.583-11.916,19.063c-4.285,5.483-8.676,10.127-13.18,13.93c-4.503,3.807-8.921,6.712-13.255,8.712
		c-4.334,2.003-8.385,3.138-12.143,3.407c-7.721,0.554-13.979-1.386-18.775-5.817c-4.795-4.433-7.462-10.407-8.002-17.933
		c-0.454-6.334,0.37-12.909,2.465-19.729c2.095-6.814,5.077-13.095,8.946-18.849c3.865-5.749,8.394-10.551,13.593-14.407
		c5.194-3.852,10.661-5.988,16.406-6.4c5.146-0.369,9.953,0.779,14.425,3.442c4.468,2.665,6.932,7.166,7.386,13.5
		c0.27,3.763-0.304,7.587-1.714,11.467c-1.416,3.883-3.452,7.411-6.106,10.586c-2.659,3.175-5.9,5.848-9.724,8.011
		c-3.827,2.168-8.112,3.417-12.864,3.758c-2.575,0.185-5.421,0.043-8.538-0.433c-3.121-0.471-6.045-1.702-8.772-3.698
		c-2.263,7.326-3.227,13.267-2.901,17.818c0.37,5.151,1.824,8.777,4.362,10.881c2.539,2.107,5.39,3.046,8.56,2.818
		c6.333-0.454,13.936-4.03,22.811-10.74c8.87-6.703,16.969-17.283,24.29-31.74C400.167,201.854,400.834,201.405,402.022,201.32z
		 M381.123,180.431c-0.142-1.977-0.672-3.781-1.582-5.408c-0.914-1.623-2.57-2.548-4.975-2.777
		c-2.774,0.199-5.571,1.397-8.399,3.587c-2.827,2.194-5.566,4.979-8.207,8.349c-2.646,3.375-5.109,7.186-7.389,11.425
		c-2.284,4.246-4.173,8.41-5.67,12.497c2.204,3.026,5.189,4.403,8.952,4.133c3.165-0.227,6.459-1.508,9.873-3.842
		c3.415-2.334,6.398-5.086,8.96-8.255c2.558-3.167,4.652-6.55,6.288-10.151C380.603,186.392,381.321,183.206,381.123,180.431z"/>
	<path fill="#FFFFFF" d="M505.957,193.866c0.789-0.057,1.563,0.335,2.323,1.176c0.755,0.843,0.764,1.69,0.033,2.535
		c-2.615,5.163-5.774,10.414-9.467,15.753c-3.699,5.34-7.577,10.245-11.631,14.714c-4.059,4.471-8.221,8.155-12.491,11.045
		c-4.27,2.895-8.284,4.475-12.047,4.744c-3.758,0.27-6.81-0.654-9.154-2.776c-2.339-2.117-3.639-4.962-3.895-8.525
		c-0.27-3.759,0.457-8.19,2.18-13.291c1.724-5.096,3.934-10.379,6.625-15.847c2.696-5.464,5.683-10.901,8.979-16.315
		c3.292-5.409,6.326-10.254,9.107-14.534c2.776-4.274,5.066-7.723,6.87-10.343c1.799-2.615,2.601-3.917,2.406-3.904
		c2.97-0.213,5.307,0.515,7.022,2.182c1.71,1.67,2.646,3.594,2.801,5.77c0.185,2.575-0.686,5.72-2.606,9.44
		c-1.925,3.719-4.324,7.725-7.197,12.009c-2.878,4.287-6.089,8.748-9.637,13.376c-3.548,4.634-6.764,9.095-9.637,13.377
		c-2.874,4.287-5.273,8.287-7.198,12.009c-1.921,3.719-2.798,6.767-2.628,9.144c0.1,1.387,0.761,2.286,1.984,2.692
		c1.223,0.411,2.332,0.579,3.32,0.509c3.17-0.228,6.643-1.671,10.436-4.33c3.788-2.66,7.573-6.065,11.356-10.219
		c3.778-4.15,7.429-8.786,10.941-13.917c3.513-5.126,6.481-10.167,8.915-15.117C504.204,194.394,504.964,193.938,505.957,193.866z
		 M511.213,104.836c2.57-0.185,4.761,0.506,6.565,2.065c1.801,1.565,2.791,3.531,2.961,5.907c0.17,2.376-0.525,4.515-2.077,6.418
		c-1.557,1.902-3.623,2.946-6.193,3.131c-2.376,0.17-4.472-0.576-6.279-2.236c-1.813-1.663-2.801-3.68-2.972-6.056
		c-0.17-2.376,0.524-4.463,2.088-6.269C506.866,105.996,508.837,105.007,511.213,104.836z"/>
	<path fill="#FFFFFF" d="M566.854,189.797c0.423,0.371,0.813,0.939,1.167,1.707c0.354,0.772,0.346,1.37-0.021,1.793
		c-4.24,7.468-9.664,13.729-16.264,18.777c-6.606,5.054-13.533,9.729-20.784,14.028c-0.044,4.979-0.595,10.442-1.661,16.387
		c-1.066,5.948-2.896,11.653-5.489,17.109c-2.594,5.457-5.989,10.13-10.189,14.014c-4.198,3.883-9.358,6.141-15.482,6.781
		c-3.944,0.479-7.535-0.354-10.777-2.511c-3.237-2.154-5.022-5.512-5.348-10.063c-0.327-4.557,0.618-8.748,2.828-12.59
		c2.216-3.839,5.135-7.481,8.768-10.928c3.634-3.441,7.785-6.626,12.449-9.549c4.665-2.919,9.297-5.638,13.892-8.16
		c-1.362-5.074-3.024-10.23-4.989-15.462c-1.971-5.231-3.661-10.782-5.075-16.65l-1.569,3.098c-0.537,0.835-1.302,1.286-2.291,1.357
		c-1.583,0.113-2.432-0.619-2.546-2.205c-0.014-0.195,0.15-0.706,0.487-1.527l4.155-8.656c-0.284-1.173-0.471-2.401-0.563-3.691
		c-0.092-1.285-0.188-2.621-0.288-4.009c-0.199-2.771-0.15-6.257,0.146-10.457c0.296-4.201,0.797-8.266,1.513-12.198
		c0.712-3.932,1.759-7.337,3.147-10.225c1.383-2.884,3.065-4.4,5.047-4.542c3.759-0.27,5.87,2.764,6.324,9.098
		c0.199,2.774-0.1,6.275-0.888,10.511c-0.792,4.236-2.189,9.014-4.195,14.331l3.014,8.739c2.25,6.406,4.226,12.486,5.934,18.229
		c1.704,5.751,2.786,11.793,3.24,18.126c6.686-3.861,12.95-8.093,18.791-12.69c5.836-4.597,10.509-10.202,14.017-16.825
		c0.366-0.422,0.935-0.814,1.708-1.168C565.829,189.423,566.426,189.431,566.854,189.797z M518.127,259.557
		c1.92-3.719,3.103-7.334,3.55-10.851c0.443-3.512,0.539-7.053,0.283-10.617c-0.071-0.988-0.149-2.079-0.234-3.267
		c-0.085-1.188-0.265-2.266-0.531-3.245c-4.201,2.493-8.398,5.033-12.587,7.62c-4.189,2.589-7.923,5.344-11.198,8.264
		c-3.269,2.921-5.881,6.047-7.835,9.368c-1.949,3.321-2.798,6.769-2.542,10.331c0.199,2.771,1.245,4.882,3.141,6.341
		c1.896,1.456,4.328,2.078,7.298,1.865c3.369-0.241,6.9-1.591,10.605-4.043C511.78,268.864,515.127,264.944,518.127,259.557z
		 M517.48,146.475c-1.516,1.107-2.369,3.057-2.565,5.855c-0.2,2.803-0.224,5.193-0.083,7.169c0.071,0.992,0.199,2.126,0.393,3.404
		c0.19,1.283,0.435,2.608,0.733,3.977c1.313-3.873,2.121-7.167,2.426-9.875c0.3-2.707,0.398-4.851,0.285-6.437
		c-0.071-0.989-0.233-1.822-0.478-2.504C517.941,147.388,517.703,146.859,517.48,146.475z"/>
	<path fill="#FFFFFF" d="M849.037,41.505c1.739,2.067,2.716,4.581,2.929,7.551c0.313,4.356-0.993,8.382-3.91,12.071
		c-2.92,3.693-6.857,7.059-11.812,10.101c-4.959,3.042-10.836,5.702-17.636,7.979c-6.805,2.28-13.825,4.275-21.063,5.989
		c-2.079,9.901-3.361,20.44-3.852,31.617c-0.494,11.183-0.808,22.745-0.944,34.694l-0.104,11.051
		c9.435,6.688,16.978,14.058,22.63,22.107c5.652,8.056,9.519,18.272,11.601,30.658c0.1,1.389-0.63,2.335-2.184,2.844
		c-1.781,0.128-2.729-0.597-2.843-2.184c-3.7-21.026-13.498-36.941-29.393-47.741c-0.183,8.571-0.615,17.109-1.298,25.614
		c-0.686,8.51-1.817,16.995-3.397,25.467c-1.584,8.471-3.869,16.798-6.865,24.969c-2.996,8.172-6.896,16.212-11.702,24.122
		c-7.126,11.654-16.412,20.878-27.865,27.669s-23.615,10.649-36.482,11.572c-9.108,0.653-17.526-0.19-25.254-2.518
		c-7.732-2.334-14.451-5.881-20.166-10.644c-5.714-4.767-10.315-10.654-13.803-17.666c-3.489-7.017-5.544-14.877-6.169-23.587
		c-0.582-8.114,0.157-16.526,2.22-25.231c2.063-8.702,5.104-16.882,9.136-24.535c-5.516-1.992-10.625-5.208-15.318-9.647
		c-4.698-4.439-7.35-10.914-7.96-19.428c-0.199-2.77-0.065-5.713,0.411-8.834c0.471-3.117,1.37-6.516,2.702-10.194
		c3.319-9.193,8.027-17.091,14.121-23.698c6.093-6.604,13.198-12.238,21.324-16.901c8.122-4.66,16.999-8.533,26.629-11.612
		s19.682-5.787,30.161-8.132c10.476-2.342,21.122-4.45,31.934-6.32c10.808-1.867,21.506-3.978,32.082-6.33
		c1.864-4.509,4.449-9.373,7.76-14.586c3.306-5.209,7.086-10.06,11.345-14.544c4.253-4.485,8.854-8.293,13.806-11.438
		c4.947-3.139,9.993-4.895,15.145-5.265C841.084,36.106,845.784,37.76,849.037,41.505z M723.667,99.749
		c-12.896,3.313-24.349,7.371-34.35,12.165c-10.006,4.798-18.479,10.131-25.418,16.002c-6.943,5.87-12.105,12.261-15.491,19.169
		c-3.384,6.913-4.814,14.029-4.289,21.351c0.809,11.286,5.019,20.042,12.629,26.258c4.534-6.095,9.905-11.703,16.105-16.826
		c6.2-5.118,12.897-9.529,20.095-13.23c7.197-3.698,14.791-6.682,22.79-8.948c7.995-2.261,16.05-3.688,24.171-4.27
		c12.867-0.923,24.797,0.311,35.785,3.701c0.151-11.75,0.766-23.286,1.848-34.607c1.076-11.318,3.529-22.192,7.361-32.616
		l-22.081,4.271c-6.31,0.853-12.797,1.962-19.461,3.334C736.693,96.874,730.129,98.292,723.667,99.749z M731.444,295.6
		c11.153-5.38,19.764-12.265,25.832-20.657c6.062-8.396,10.512-17.82,13.345-28.269c2.832-10.45,4.463-21.663,4.9-33.635
		c0.434-11.971,0.502-24.214,0.201-36.729l-0.258-16.1c-5.093-1.622-10.6-2.771-16.516-3.443c-5.92-0.666-12.047-0.776-18.38-0.322
		c-30.491,2.187-54.3,17.027-71.432,44.523c1.626,0.481,3.139,0.774,4.54,0.869c1.397,0.1,2.89,0.092,4.476-0.021
		c11.68-0.838,21.756-4.644,30.225-11.423c8.47-6.772,14.242-15.051,17.323-24.824c0.324-1.015,1.082-1.569,2.27-1.655
		c2.176-0.156,2.945,0.885,2.313,3.118c-3.154,11.569-9.695,20.896-19.635,27.974c-9.94,7.085-21.545,11.097-34.807,12.048
		c-1.781,0.128-3.466,0.248-5.048,0.362c-1.588,0.113-3.184,0.032-4.794-0.252c-4.169,8.459-7.188,17.035-9.051,25.722
		c-1.867,8.692-2.526,16.794-1.986,24.32c1.107,15.442,6.271,27.11,15.494,35.007c9.223,7.893,21.355,11.304,36.403,10.225
		c4.158-0.298,8.33-1.046,12.526-2.242C723.578,299,727.595,297.466,731.444,295.6z M842.042,60.514
		c3.674-4.242,5.393-8.044,5.15-11.414c-0.185-2.57-1.369-4.528-3.555-5.864c-2.185-1.335-4.962-1.882-8.326-1.641
		c-4.557,0.327-8.827,1.78-12.821,4.352c-3.994,2.577-7.552,5.719-10.667,9.422c-3.12,3.708-5.766,7.726-7.941,12.062
		c-2.179,4.334-3.825,8.435-4.938,12.293c9.585-2.277,18.103-4.926,25.549-7.951C831.934,68.753,837.784,64.999,842.042,60.514z"/>
	<path fill="#FFFFFF" d="M983.271,56.952c0.731-0.846,1.659-1.112,2.778-0.796c1.115,0.321,1.726,1.173,1.825,2.556
		c0.156,2.181-1.154,4.065-3.922,5.654c-2.773,1.593-6.354,2.992-10.744,4.203c-4.39,1.209-9.15,2.148-14.274,2.814
		c-5.13,0.667-10.065,1.169-14.817,1.51c-5.345,0.383-10.947,0.687-16.8,0.907c-5.855,0.224-11.867,0.356-18.03,0.398
		c-8.299,11.937-17.305,24.425-27.014,37.458c-9.713,13.038-19.204,25.659-28.478,37.861l-18.532,24.612
		c-0.794,2.846-1.799,6.845-3.02,12.007c-1.221,5.161-1.647,10.318-1.278,15.464c0.241,3.369,1.45,5.669,3.629,6.904
		c2.178,1.237,4.353,1.776,6.534,1.62c3.164-0.228,6.549-1.612,10.148-4.16c3.596-2.544,7.243-5.79,10.943-9.739
		c3.695-3.946,7.206-8.376,10.538-13.293c3.328-4.911,6.308-9.855,8.938-14.819c0.138-0.802,0.806-1.251,1.993-1.337
		c0.789-0.057,1.514,0.293,2.164,1.039c0.65,0.75,0.715,1.642,0.191,2.673c-2.786,5.572-5.98,10.979-9.583,16.209
		c-3.607,5.235-7.399,9.932-11.376,14.099c-3.983,4.165-7.967,7.539-11.962,10.11c-3.994,2.577-7.875,3.998-11.634,4.268
		c-3.963,0.284-7.462-0.706-10.511-2.978c-3.045-2.268-4.736-5.678-5.063-10.234c-0.214-2.97-0.063-6.459,0.442-10.479
		c0.51-4.015,1.385-8.457,2.626-13.322c4.942-19.854,10.521-38.514,16.731-55.974c6.211-17.459,12.784-33.304,19.725-47.532
		c-3.383,0.047-6.702,0.183-9.97,0.417c-3.267,0.234-6.486,0.465-9.651,0.692c-10.89,0.781-20.093,2.141-27.617,4.069
		c-7.52,1.934-11.834,4.93-12.937,8.988c-0.31,1.216-1.061,1.867-2.249,1.953c-0.988,0.071-1.654-0.181-1.994-0.753
		c-0.339-0.571-0.53-1.155-0.572-1.749c-0.199-2.771,0.971-5.191,3.509-7.266c2.537-2.072,5.896-3.805,10.073-5.201
		c4.183-1.39,8.978-2.48,14.393-3.27c5.414-0.785,10.894-1.379,16.438-1.777c3.759-0.27,7.577-0.491,11.444-0.67
		c3.867-0.175,7.785-0.307,11.762-0.396c4.707-9.292,9.11-17.221,13.22-23.784c4.104-6.563,8.104-11.872,11.99-15.933
		c3.889-4.057,7.851-7.079,11.888-9.062c4.037-1.978,8.329-3.135,12.886-3.461c7.127-0.511,11.419,1.074,12.876,4.748
		c1.458,3.678,1.383,8.212-0.219,13.598c-1.604,5.39-4.042,10.938-7.313,16.643c-3.275,5.71-6.085,10.24-8.429,13.589l-2.162,3.141
		c10.14-0.13,20.058-0.544,29.76-1.24c9.897-0.71,18.522-1.873,25.868-3.496C975.781,62.815,980.723,60.32,983.271,56.952z
		 M849.998,146.506c8.708-11.767,17.695-23.805,26.961-36.111c9.267-12.305,17.957-24.318,26.071-36.047l-22.38,0.112
		c-3.902,6.651-7.779,13.646-11.629,20.983c-3.853,7.343-7.55,14.771-11.087,22.287c-3.542,7.52-6.849,14.818-9.922,21.904
		s-5.694,13.594-7.854,19.518L849.998,146.506z M910.875,63.039c4.849-7.311,8.58-13.547,11.195-18.711
		c2.614-5.16,4.3-9.361,5.066-12.602c0.761-3.236,0.742-5.576-0.056-7.011c-0.802-1.435-2.091-2.088-3.872-1.96
		c-4.751,0.341-10.188,4.313-16.309,11.915c-6.125,7.603-13.8,19.198-23.027,34.784l22.676-0.133L910.875,63.039z"/>
	<path fill="#FFFFFF" d="M948.446,162.431c0.409,0.171,0.795,0.689,1.156,1.559c0.361,0.869,0.356,1.518-0.011,1.94
		c-6.645,12.817-13.602,23.315-20.874,31.496c-7.276,8.185-13.583,12.467-18.929,12.85c-5.345,0.384-9.623-0.998-12.834-4.154
		c-3.211-3.15-4.938-6.408-5.179-9.777c-0.299-4.157,0.871-8.668,3.507-13.534c2.636-4.862,5.518-9.747,8.65-14.65
		c3.128-4.897,6.036-9.485,8.714-13.757c2.68-4.27,3.919-7.791,3.721-10.564c-0.114-1.583-0.997-2.766-2.642-3.542
		c-1.651-0.777-4.947-2.379-9.897-4.813c-1.883,4.315-3.961,8.643-6.232,12.984c-2.277,4.342-4.459,8.58-6.552,12.708l-4.707,9.292
		c-0.142,0.807-0.805,1.251-1.993,1.336c-0.789,0.057-1.455-0.194-1.994-0.752c-0.534-0.559-0.827-1.134-0.87-1.729
		c-0.028-0.395,0.144-0.804,0.509-1.23l4.706-9.292c1.907-3.914,4.043-8.148,6.403-12.697c2.36-4.544,4.572-9.082,6.636-13.61
		c-2.338-2.019-4.347-4.413-6.037-7.179c-1.69-2.761-2.679-6.123-2.963-10.085c-0.185-2.57-0.025-5.17,0.486-7.795
		c0.507-2.621,1.328-5.021,2.469-7.191c1.137-2.171,2.552-3.961,4.241-5.379c1.69-1.413,3.522-2.193,5.504-2.335
		c2.97-0.213,5.369,0.66,7.203,2.619c1.828,1.958,2.854,4.421,3.066,7.391c0.255,3.563-0.389,7.789-1.927,12.675
		c-1.543,4.887-3.513,10.004-5.913,15.348c2.29,1.432,4.515,2.616,6.672,3.552c2.157,0.941,4.28,2.132,6.375,3.572
		c2.546,2.206,3.919,4.696,4.118,7.466c0.113,1.587-0.234,3.701-1.038,6.342c-1.483,4.286-3.246,8.843-5.288,13.663
		c-2.042,4.824-3.994,9.539-5.852,14.15c-1.86,4.612-3.391,8.9-4.599,12.867c-1.208,3.968-1.72,7.24-1.535,9.812
		c0.043,0.593,0.193,1.329,0.457,2.205c0.259,0.877,1.678,1.223,4.253,1.038c3.563-0.256,8.718-3.955,15.472-11.109
		c6.749-7.147,13.43-17.329,20.047-30.54c0.366-0.422,0.936-0.814,1.707-1.168C947.42,162.057,948.018,162.065,948.446,162.431z
		 M901.768,127.571c2.021-5.117,3.722-9.818,5.108-14.098c1.382-4.278,1.979-7.799,1.779-10.575
		c-0.156-2.176-0.709-3.629-1.656-4.358c-0.947-0.725-2.016-1.05-3.204-0.965c-2.375,0.17-4.373,2.156-5.99,5.952
		c-1.62,3.801-2.285,7.678-2.001,11.635c0.199,2.775,0.864,5.162,2.007,7.17C898.949,124.341,900.268,126.087,901.768,127.571z"/>
	<path fill="#FFFFFF" d="M1044.959,155.509c0.817,0.343,1.266,1.005,1.337,1.993c0.043,0.595-0.121,1.105-0.487,1.528
		c-2.448,4.756-5.378,9.69-8.788,14.809c-3.415,5.124-7.058,9.811-10.932,14.067c-3.873,4.26-7.793,7.872-11.759,10.842
		s-7.626,4.68-10.976,5.115c-4.557,0.327-8.119-0.112-10.691-1.321c-2.577-1.206-4.577-2.755-6.005-4.645
		c-1.432-1.884-2.37-3.906-2.823-6.066c-0.452-2.155-0.735-4.023-0.85-5.61c-3.194,5.407-6.739,10.086-10.635,14.046
		c-3.894,3.964-8.417,6.126-13.563,6.495c-12.867,0.923-19.729-4.555-20.581-16.434c-0.469-6.534,1.06-13.705,4.575-21.522
		c3.521-7.813,8.064-15.153,13.645-22.021c5.576-6.865,11.823-12.686,18.747-17.463c6.919-4.773,13.647-7.396,20.181-7.865
		c2.771-0.199,5.54,0.251,8.306,1.344c2.765,1.1,4.253,3.128,4.467,6.098c2.771-2.982,5.207-5.046,7.316-6.196
		c2.105-1.144,4.051-1.783,5.833-1.911c1.977-0.142,3.548,0.245,4.709,1.154c1.157,0.917,1.776,1.864,1.847,2.853
		c0.043,0.595-0.121,1.106-0.487,1.529c-2.576,2.972-5.605,7.169-9.097,12.591c-3.491,5.427-6.857,11.237-10.093,17.44
		c-3.239,6.202-5.935,12.318-8.086,18.34c-2.157,6.026-3.084,11.117-2.786,15.274c0.143,1.98,0.624,3.887,1.455,5.716
		c0.827,1.834,2.342,2.868,4.552,3.105c2.176-0.155,4.914-1.494,8.218-4.021c3.299-2.521,6.755-5.708,10.359-9.549
		c3.605-3.839,7.12-8.219,10.55-13.143c3.425-4.919,6.442-10.061,9.042-15.424c0.139-0.802,0.806-1.251,1.993-1.336
		C1044.047,155.276,1044.547,155.342,1044.959,155.509z M958.723,201.691c5.346-0.384,9.789-2.94,13.329-7.672
		c3.542-4.731,6.86-10.492,9.955-17.28c3.095-6.789,6.208-13.976,9.349-21.564c3.136-7.585,6.98-14.33,11.533-20.229
		c0.818-2.447,0.72-4.529-0.299-6.248c-1.018-1.717-3.114-2.463-6.279-2.236c-5.744,0.412-11.313,3.2-16.713,8.362
		c-5.403,5.164-10.238,11.233-14.514,18.205c-4.276,6.977-7.637,14.232-10.081,21.767c-2.444,7.54-3.475,13.98-3.092,19.326
		c0.143,1.981,0.617,3.789,1.434,5.42C954.158,201.175,955.949,201.891,958.723,201.691z"/>
	<path fill="#FFFFFF" d="M1160.182,147.246c0.408,0.171,0.795,0.689,1.156,1.559c0.36,0.869,0.356,1.518-0.01,1.94
		c-2.63,4.964-5.552,10.001-8.768,15.106c-3.215,5.109-6.615,9.727-10.199,13.864c-3.583,4.138-7.174,7.53-10.762,10.175
		c-3.593,2.646-6.974,4.081-10.138,4.309c-16.436,1.178-24.976-2.784-25.629-11.893c-0.313-4.352,1.154-9.531,4.408-15.539
		c3.249-6.002,6.839-12.132,10.771-18.384c3.926-6.251,7.527-12.228,10.802-17.938c3.271-5.705,4.774-10.44,4.504-14.203
		c-0.198-2.77-1.885-4.043-5.049-3.816c-4.557,0.327-9.771,3.191-15.653,8.585c-5.881,5.398-12.018,12.107-18.406,20.126
		c-0.875,4.441-2.179,9.161-3.909,14.159c-1.73,5.002-3.814,9.976-6.243,14.925c-1.046,2.067-2.501,4.658-4.367,7.776
		c-1.866,3.118-4.036,6.16-6.51,9.123c-2.475,2.967-5.169,5.646-8.08,8.042c-2.915,2.4-6.045,3.819-9.396,4.255
		c-1.977,0.142-3.033-0.677-3.161-2.459c-0.057-0.789,0.19-1.507,0.741-2.144l5.322-9.038c5.271-9.729,9.644-18.102,13.123-25.118
		c3.476-7.013,6.232-12.984,8.268-17.906s3.438-8.902,4.218-11.944c0.775-3.041,1.109-5.35,0.995-6.937
		c-0.17-2.375-1.049-3.505-2.632-3.392c-2.774,0.199-6.682,3.267-11.728,9.198c-5.049,5.936-10.962,15.711-17.746,29.332
		c-0.143,0.807-0.806,1.251-1.993,1.336c-0.789,0.057-1.456-0.194-1.994-0.752c-0.535-0.56-0.828-1.134-0.87-1.729
		c-0.029-0.395,0.143-0.804,0.509-1.23c2.443-4.75,5.031-9.562,7.77-14.437c2.733-4.87,5.554-9.251,8.46-13.144
		c2.902-3.889,5.808-7.082,8.716-9.58c2.903-2.494,5.741-3.844,8.516-4.043c3.958-0.284,7.042,1.09,9.25,4.113
		c2.204,3.026,3.452,6.52,3.736,10.477c0.028,0.399-0.001,0.701-0.085,0.902c-0.088,0.208-0.112,0.508-0.084,0.901
		c1.834-2.118,3.898-4.557,6.191-7.309c2.289-2.749,4.791-5.315,7.507-7.703c2.712-2.381,5.547-4.473,8.505-6.281
		c2.953-1.803,6.112-2.825,9.48-3.067c4.353-0.312,7.9,0.58,10.639,2.669c2.734,2.094,4.227,4.822,4.468,8.186
		c0.313,4.357-0.691,9.354-3.001,14.991c-2.314,5.641-4.873,11.393-7.67,17.266c-2.802,5.873-5.363,11.579-7.681,17.118
		c-2.322,5.539-3.338,10.289-3.055,14.248c0.171,2.376,0.938,4.111,2.313,5.207c1.371,1.096,2.949,1.579,4.731,1.451
		c2.57-0.184,5.513-1.487,8.823-3.916c3.305-2.425,6.565-5.546,9.775-9.358c3.206-3.812,6.334-8.066,9.383-12.762
		c3.045-4.696,5.789-9.417,8.237-14.172c0.366-0.421,0.936-0.814,1.707-1.167C1159.158,146.872,1159.754,146.88,1160.182,147.246z"
		/>
	<path fill="#FFFFFF" d="M1246.576,140.751c1.16-0.48,2.118-0.25,2.886,0.688c0.762,0.944,0.685,1.943-0.233,3.002
		c-3.507,6.623-8.747,14.012-15.722,22.171c-6.979,8.164-14.724,16.727-23.231,25.696c-5.51,14.723-11.108,28.952-16.787,42.693
		c-5.685,13.737-11.416,26.041-17.204,36.904c-5.787,10.862-11.524,19.631-17.217,26.309c-5.687,6.676-11.208,10.205-16.553,10.589
		c-2.571,0.185-5.304-0.468-8.199-1.948c-2.892-1.486-4.537-5.001-4.935-10.541c-0.469-6.534,1.116-13.564,4.756-21.087
		c3.639-7.527,8.554-15.343,14.735-23.444c6.186-8.106,13.253-16.426,21.195-24.952c7.941-8.53,15.993-16.967,24.153-25.313
		l9.135-26.624l6.973-23.483c-2.292,4.147-4.967,8.466-8.026,12.962c-3.063,4.501-6.287,8.762-9.679,12.783
		c-3.396,4.027-6.935,7.364-10.625,10.016c-3.69,2.653-7.317,4.106-10.881,4.362c-5.939,0.426-10.652-0.775-14.14-3.612
		c-3.485-2.833-5.436-7.12-5.848-12.864c-0.468-6.534,0.771-13.586,3.707-21.162c2.941-7.57,6.857-14.669,11.756-21.29
		c4.898-6.62,10.469-12.191,16.711-16.719c6.242-4.525,12.527-7.018,18.866-7.472l0.594-0.042c5.146-0.369,8.956,1.446,11.435,5.447
		c2.476,4.001,4.08,8.365,4.819,13.087c2.738-6.167,5.795-11.409,9.17-15.732c3.371-4.318,7.331-6.645,11.888-6.972
		c1.582-0.114,2.433,0.623,2.546,2.205c-0.085-1.188-1.629,2.258-4.632,10.333c-3.003,8.079-7.417,20.083-13.236,36.022
		l-9.983,27.282c3.15-3.211,6.507-7.081,10.062-11.617c3.556-4.532,6.929-8.804,10.125-12.815c3.192-4.006,5.83-7.479,7.909-10.417
		C1244.94,142.263,1246.177,140.78,1246.576,140.751z M1151.674,299.192c6.079-6.807,12.302-17.85,18.669-33.128
		c6.366-15.283,13.102-33.029,20.21-53.238c-7.238,7.281-14.271,14.703-21.089,22.257c-6.818,7.551-12.854,14.952-18.109,22.194
		c-5.25,7.242-9.432,14.154-12.541,20.749c-3.109,6.589-4.473,12.56-4.089,17.905c0.397,5.54,2.874,8.15,7.427,7.824
		c1.587-0.114,3.289-0.637,5.111-1.561C1149.09,301.267,1150.557,300.266,1151.674,299.192z M1177.711,183.598
		c3.603-2.445,7.069-5.479,10.392-9.102c3.323-3.62,6.373-7.519,9.16-11.702c2.783-4.177,5.458-8.498,8.025-12.962
		c2.563-4.46,4.895-8.755,6.986-12.889c0.903-1.259,1.48-2.242,1.728-2.96c0.247-0.713,0.314-1.86,0.2-3.447
		c-0.383-5.345-1.536-9.59-3.45-12.737c-1.919-3.146-4.56-4.598-7.924-4.356c-1.981,0.142-3.832,0.675-5.558,1.592
		c-6.334,3.244-11.618,7.997-15.842,14.271c-4.228,6.272-7.597,12.685-10.112,19.231c-2.516,6.552-4.273,12.596-5.266,18.138
		c-0.997,5.548-1.423,9.309-1.281,11.286c0.256,3.563,0.97,5.9,2.145,7.01c1.172,1.11,2.453,1.615,3.841,1.515
		c1.382-0.099,2.651-0.488,3.796-1.167C1175.697,184.639,1176.748,184.068,1177.711,183.598z"/>
	<path fill="#FFFFFF" d="M1317.253,135.683c1.781-0.128,2.736,0.699,2.864,2.481c0.042,0.594-0.03,1-0.211,1.209
		c-3.661,7.23-7.636,13.583-11.916,19.063c-4.284,5.483-8.677,10.127-13.18,13.93c-4.503,3.807-8.922,6.712-13.256,8.712
		c-4.334,2.003-8.384,3.138-12.143,3.407c-7.722,0.554-13.979-1.386-18.774-5.817c-4.796-4.432-7.463-10.407-8.003-17.933
		c-0.454-6.334,0.371-12.909,2.466-19.729c2.096-6.814,5.077-13.095,8.946-18.849c3.864-5.749,8.394-10.55,13.593-14.407
		c5.195-3.853,10.662-5.989,16.405-6.401c5.146-0.369,9.954,0.779,14.426,3.443c4.468,2.665,6.933,7.166,7.387,13.5
		c0.271,3.763-0.305,7.587-1.716,11.466c-1.414,3.883-3.451,7.411-6.106,10.586c-2.659,3.175-5.899,5.847-9.723,8.01
		c-3.827,2.168-8.113,3.417-12.865,3.758c-2.574,0.185-5.421,0.043-8.537-0.433c-3.121-0.47-6.045-1.702-8.773-3.698
		c-2.263,7.326-3.227,13.266-2.899,17.818c0.369,5.151,1.823,8.778,4.361,10.881c2.54,2.108,5.392,3.046,8.56,2.819
		c6.335-0.454,13.937-4.031,22.812-10.74c8.871-6.703,16.969-17.284,24.289-31.74
		C1315.398,136.217,1316.066,135.768,1317.253,135.683z M1296.354,114.793c-0.142-1.977-0.673-3.781-1.583-5.408
		c-0.913-1.623-2.57-2.549-4.976-2.778c-2.774,0.199-5.571,1.397-8.397,3.587c-2.828,2.194-5.566,4.979-8.207,8.349
		c-2.646,3.375-5.109,7.186-7.39,11.424c-2.284,4.247-4.173,8.41-5.67,12.497c2.203,3.026,5.189,4.403,8.952,4.133
		c3.165-0.227,6.458-1.507,9.874-3.842c3.413-2.333,6.397-5.086,8.96-8.255c2.557-3.167,4.649-6.55,6.285-10.151
		C1295.834,120.754,1296.553,117.569,1296.354,114.793z"/>
</g>
</svg>
